<?xml version="1.0" encoding="UTF-8"?>
<svg width="64" height="64" viewBox="0 0 64 64" fill="none" xmlns="http://www.w3.org/2000/svg">
  <circle cx="32" cy="32" r="30" fill="#E8BB7F"/>
  <circle cx="20" cy="20" r="3" fill="#8B4513"/>
  <circle cx="32" cy="15" r="3" fill="#8B4513"/>
  <circle cx="44" cy="22" r="3" fill="#8B4513"/>
  <circle cx="18" cy="36" r="3" fill="#8B4513"/>
  <circle cx="32" cy="42" r="3" fill="#8B4513"/>
  <circle cx="46" cy="38" r="3" fill="#8B4513"/>
  <circle cx="26" cy="28" r="3" fill="#8B4513"/>
  <circle cx="38" cy="30" r="3" fill="#8B4513"/>
  <path d="M32 62C48.5685 62 62 48.5685 62 32C62 15.4315 48.5685 2 32 2C15.4315 2 2 15.4315 2 32C2 48.5685 15.4315 62 32 62Z" stroke="#D4A76A" stroke-width="2"/>
  <path d="M32 58C46.3594 58 58 46.3594 58 32C58 17.6406 46.3594 6 32 6C17.6406 6 6 17.6406 6 32C6 46.3594 17.6406 58 32 58Z" stroke="#C69C6D" stroke-width="1"/>
</svg> 